<?xml version="1.0" standalone="no"?>
<!DOCTYPE svg PUBLIC "-//W3C//DTD SVG 20010904//EN"
 "http://www.w3.org/TR/2001/REC-SVG-20010904/DTD/svg10.dtd">
<svg version="1.0" xmlns="http://www.w3.org/2000/svg"
 width="700.000000pt" height="700.000000pt" viewBox="0 0 700.000000 700.000000"
 preserveAspectRatio="xMidYMid meet">
<metadata>
Created by potrace 1.14, written by Peter Selinger 2001-2017
</metadata>
<g transform="translate(0.000000,700.000000) scale(0.100000,-0.100000)"
fill="#000000" stroke="none">
<path d="M3449 6547 c-8 -7 -28 -34 -44 -62 -39 -67 -173 -199 -265 -260 -76
-50 -247 -141 -310 -165 -183 -68 -214 -78 -362 -115 -123 -31 -279 -63 -344
-70 -28 -3 -59 -7 -70 -9 -10 -2 -50 -7 -89 -11 -38 -4 -77 -9 -85 -10 -46 -8
-344 -23 -503 -24 -84 -1 -90 -3 -118 -30 l-29 -30 0 -1588 c1 -1675 0 -1642
45 -1802 97 -343 344 -681 770 -1050 38 -33 158 -127 210 -166 22 -16 42 -31
45 -34 29 -32 463 -312 612 -395 24 -13 81 -45 128 -71 159 -88 425 -215 455
-217 20 -1 92 29 225 95 107 54 213 107 235 120 22 13 65 37 95 53 157 86 378
224 519 323 51 36 112 79 135 95 132 92 341 271 481 412 183 183 264 286 396
499 39 63 105 212 133 304 56 179 55 124 56 1839 l0 1583 -29 30 c-26 25 -37
29 -88 29 -91 0 -331 9 -403 15 -107 9 -273 25 -300 30 -14 2 -43 7 -65 10
-50 6 -114 16 -140 21 -11 2 -33 7 -50 10 -202 36 -476 125 -655 213 -180 89
-378 249 -440 356 -39 68 -60 85 -99 85 -20 0 -43 -6 -52 -13z m1551 -1914
c28 -39 50 -78 50 -86 0 -7 -52 -65 -116 -128 -64 -63 -121 -119 -128 -125
-29 -29 -128 -135 -175 -189 -30 -33 -68 -76 -85 -95 -17 -19 -54 -62 -81 -95
-28 -33 -53 -62 -56 -65 -20 -18 -287 -367 -348 -455 -307 -446 -491 -759
-628 -1072 -19 -42 -41 -77 -54 -84 -25 -13 32 -67 -912 890 l-318 323 33 37
c37 40 203 185 280 244 l50 37 66 -52 c37 -29 74 -58 82 -65 8 -6 42 -33 76
-60 34 -26 76 -59 94 -73 50 -38 242 -189 267 -210 66 -56 64 -56 124 12 163
190 528 555 725 725 12 10 47 40 78 67 32 27 69 58 84 70 15 11 29 23 32 26
20 21 278 219 380 291 117 83 259 179 264 179 3 0 31 18 63 39 l58 40 23 -27
c12 -15 45 -59 72 -99z"/>
</g>
</svg>
